<svg width="24" height="24" viewBox="0 0 24 24" fill="none" xmlns="http://www.w3.org/2000/svg">
<path d="M12 8C10.343 8 9 8.895 9 10C9 11.105 10.343 12 12 12C12 12 15 12.895 15 14C15 14 13.657 16 12 16M12 8C13.11 8 14.08 8.402 14.599 9M12 8V7M12 8V16M12 16V17M12 16C10.89 16 9.92 15.598 9.401 15M21 12C21 16.9672 16.9672 21 12 21C7.03276 21 3 16.9672 3 12C3 7.03276 7.03276 3 12 3C16.9672 3 21 7.03276 21 12L12 8" stroke="#86EFAC" stroke-width="2" stroke-linecap="round" stroke-linejoin="round"/>
</svg>
